# xmcd
#
# Track frame offsets:
#	150
#	12207
#	27527
#	44592
#	59120
#	74130
#	89505
#	105453
#	121315
#	136914
#	149724
#	163132
#	177579
#
# Disc length: 2609 seconds
#
# Revision: 0
# Processed by: cddbd v1.4b42PL1 Copyright (c) Steve Scherf et al.
# Submitted via: EasyCDDAExtractor 4.5.0.2
#
DISCID=cf0a2f0d
DTITLE=Os Serranos - De Bem com a Vida
DYEAR=1900
DGENRE=
TTITLE0=Gauchona (A Gostosona) (Vanerão)
TTITLE1=Chote Brasileiro (Chote)
TTITLE2=De Bem com a Vida (Vaneira)
TTITLE3=Jeito de Galpão (Milonga)
TTITLE4=Parceiros de Campo (Chamamê)
TTITLE5=China de Faceira (Vaneira)
TTITLE6=Metendo os Ferro (Veneirão)
TTITLE7=Surundo de Campo (Vaneira)
TTITLE8=Produtor Rural (Chote)
TTITLE9=Marcas do Tempo (Vaneria)
TTITLE10=Eu De À Cavalo (Chamané)
TTITLE11=Ventena (Vaneira)
TTITLE12=Meu Martírio (Toada Gaúcha)
EXTD=
EXTT0=
EXTT1=
EXTT2=
EXTT3=
EXTT4=
EXTT5=
EXTT6=
EXTT7=
EXTT8=
EXTT9=
EXTT10=
EXTT11=
EXTT12=
PLAYORDER=
